<mxfile host="app.diagrams.net" modified="2023-06-06T04:03:18.192Z" agent="Mozilla/5.0 (Windows NT 10.0; Win64; x64) AppleWebKit/537.36 (KHTML, like Gecko) Chrome/114.0.0.0 Safari/537.36" etag="tcYwUHnZDFzkzbZcY8mn" version="21.3.7" type="device">
  <diagram name="Page-1" id="tHYJoh77mAfh7nrXyTra">
    <mxGraphModel dx="880" dy="522" grid="1" gridSize="10" guides="1" tooltips="1" connect="1" arrows="1" fold="1" page="1" pageScale="1" pageWidth="850" pageHeight="1100" math="0" shadow="0">
      <root>
        <mxCell id="0" />
        <mxCell id="1" parent="0" />
        <mxCell id="UiKUofc9EQiTBNJdgfwe-1" value="A" style="ellipse;whiteSpace=wrap;html=1;sketch=1;curveFitting=1;jiggle=2;rounded=0;" vertex="1" parent="1">
          <mxGeometry x="365" y="70" width="120" height="80" as="geometry" />
        </mxCell>
        <mxCell id="UiKUofc9EQiTBNJdgfwe-2" value="B" style="ellipse;whiteSpace=wrap;html=1;sketch=1;curveFitting=1;jiggle=2;rounded=0;" vertex="1" parent="1">
          <mxGeometry x="270" y="160" width="120" height="80" as="geometry" />
        </mxCell>
        <mxCell id="UiKUofc9EQiTBNJdgfwe-3" value="C" style="ellipse;whiteSpace=wrap;html=1;sketch=1;curveFitting=1;jiggle=2;rounded=0;" vertex="1" parent="1">
          <mxGeometry x="470" y="160" width="120" height="80" as="geometry" />
        </mxCell>
        <mxCell id="UiKUofc9EQiTBNJdgfwe-4" value="D" style="ellipse;whiteSpace=wrap;html=1;sketch=1;curveFitting=1;jiggle=2;rounded=0;" vertex="1" parent="1">
          <mxGeometry x="110" y="270" width="120" height="80" as="geometry" />
        </mxCell>
        <mxCell id="UiKUofc9EQiTBNJdgfwe-6" value="E" style="ellipse;whiteSpace=wrap;html=1;sketch=1;curveFitting=1;jiggle=2;rounded=0;" vertex="1" parent="1">
          <mxGeometry x="270" y="270" width="120" height="80" as="geometry" />
        </mxCell>
        <mxCell id="UiKUofc9EQiTBNJdgfwe-7" value="F" style="ellipse;whiteSpace=wrap;html=1;sketch=1;curveFitting=1;jiggle=2;rounded=0;" vertex="1" parent="1">
          <mxGeometry x="400" y="270" width="120" height="80" as="geometry" />
        </mxCell>
        <mxCell id="UiKUofc9EQiTBNJdgfwe-8" value="G" style="ellipse;whiteSpace=wrap;html=1;sketch=1;curveFitting=1;jiggle=2;rounded=0;" vertex="1" parent="1">
          <mxGeometry x="560" y="270" width="120" height="80" as="geometry" />
        </mxCell>
        <mxCell id="UiKUofc9EQiTBNJdgfwe-9" value="" style="ellipse;whiteSpace=wrap;html=1;sketch=1;curveFitting=1;jiggle=2;rounded=0;" vertex="1" parent="1">
          <mxGeometry x="200" y="380" width="120" height="80" as="geometry" />
        </mxCell>
      </root>
    </mxGraphModel>
  </diagram>
</mxfile>
